# xmcd
#
# Track frame offsets: 
#        150
#        14697
#        32158
#        44024
#        63608
#        80354
#        94413
#        111817
#        132552
#        153576
#        172418
#        186999
#        206750
#        221497
#        235888
#        249707
#        273231
#
# Disc length: 3909 seconds
#
# Revision: 0
# Processed by: cddbd v1.5.1PL2 Copyright (c) Steve Scherf et al.
# Submitted via: ExactAudioCopy v0.95b3
#
DISCID=0c0f4311
DTITLE=The Bogus Band - Donde Estabas Entonces
DYEAR=1900
DGENRE=Acoustic
TTITLE0=01 - The Bogus Band - Insurreccion (con Teo Cardalda).mp3
TTITLE1=02 - The Bogus Band - No Me Puedo Levantar.mp3
TTITLE2=03 - The Bogus Band - Dejame.mp3
TTITLE3=04 - The Bogus Band - Divina Estas.mp3
TTITLE4=05 - The Bogus Band - Sabor De Amor.mp3
TTITLE5=06 - The Bogus Band - Ojos De Perdida.mp3
TTITLE6=07 - The Bogus Band - Como Pudiste Hacerme Esto A Mi.mp3
TTITLE7=08 - The Bogus Band - Chica De Ayer.mp3
TTITLE8=09 - The Bogus Band - Sal Fuera De Ti (con Miguel Rios).mp3
TTITLE9=10 - The Bogus Band - No Dudaria.mp3
TTITLE10=11 - The Bogus Band - Por Las Noches.mp3
TTITLE11=12 - The Bogus Band - Las Chicas Son Guerreras.mp3
TTITLE12=13 - The Bogus Band - Dime Que Me Quieres (con Javier Gurruch
TTITLE12=aga).mp3
TTITLE13=14 - The Bogus Band - Vamos Muy Bien.mp3
TTITLE14=15 - The Bogus Band - Abracadabra (La Bola De Cristal).mp3
TTITLE15=16 - The Bogus Band - Amante Bandido.mp3
TTITLE16=17 - The Bogus Band - A Quien Le Importa.mp3
EXTD=
EXTT0=
EXTT1=
EXTT2=
EXTT3=
EXTT4=
EXTT5=
EXTT6=
EXTT7=
EXTT8=
EXTT9=
EXTT10=
EXTT11=
EXTT12=
EXTT13=
EXTT14=
EXTT15=
EXTT16=
PLAYORDER=
